# xmcd
#
# Track frame offsets:
#	150
#	15396
#	33775
#	44760
#	62092
#	72381
#	91067
#	106113
#	120160
#	135647
#
# Disc length: 2022 seconds
#
# Revision: 0
# Processed by: cddbd v1.5.2PL0 Copyright (c) Steve Scherf et al.
# Submitted via: EasyCDDAExtractor 10.0.2.1
#
DISCID=7707e40a
DTITLE=George Jones - Cold Hard Truth
DYEAR=1999
DGENRE=Country
TTITLE0=Choices
TTITLE1=The Cold Hard Truth
TTITLE2=Sinners and Saints
TTITLE3=Day After Forever
TTITLE4=Ain't Love A Lot Like That
TTITLE5=Our Bed Of Roses
TTITLE6=Real Deal
TTITLE7=This Wanting You
TTITLE8=You Never Know Just How Good You've Got It
TTITLE9=When The Last Curtain Falls
EXTD=
EXTT0=
EXTT1=
EXTT2=
EXTT3=
EXTT4=
EXTT5=
EXTT6=
EXTT7=
EXTT8=
EXTT9=
PLAYORDER=
